<svg width="426" height="425" viewBox="0 0 426 425" fill="none" xmlns="http://www.w3.org/2000/svg">
<path d="M0 40C0 17.9086 17.9086 0 40 0H200V200H0V40Z" fill="#737373"/>
<path d="M225 225H425V390C425 409.33 409.33 425 390 425H225V225Z" fill="#737373"/>
<path d="M0 225H200V425H35C15.67 425 0 409.33 0 390V225Z" fill="#737373"/>
<path d="M225 0H390C409.33 0 425 15.67 425 35V200H225V0Z" fill="#737373"/>
<path d="M86.0285 157.258V34.3885H113.905V157.258H86.0285ZM38.532 109.761V81.8849H161.401V109.761H38.532Z" fill="#3D3D3D"/>
<path d="M142.048 389.879L37.9106 285.92L57.9745 265.767L162.023 369.904L142.048 389.879ZM57.9745 389.879L37.9106 369.904L142.048 265.767L162.023 285.92L57.9745 389.879Z" fill="#3D3D3D"/>
<path d="M364.938 79.044V105.5H283.084V79.044H364.938Z" fill="#3D3D3D"/>
<path d="M386.336 314.506V341.229H265.597V314.506H386.336ZM325.967 395.561C320.522 395.561 315.876 393.667 312.028 389.879C308.241 386.032 306.347 381.386 306.347 375.941C306.347 370.614 308.241 366.057 312.028 362.269C315.876 358.481 320.522 356.587 325.967 356.587C331.293 356.587 335.851 358.481 339.639 362.269C343.426 366.057 345.32 370.614 345.32 375.941C345.32 381.386 343.426 386.032 339.639 389.879C335.851 393.667 331.293 395.561 325.967 395.561ZM325.967 299.059C322.356 299.059 319.042 298.201 316.024 296.484C313.064 294.709 310.697 292.341 308.921 289.382C307.205 286.364 306.347 283.049 306.347 279.439C306.347 274.112 308.241 269.555 312.028 265.767C315.876 261.979 320.522 260.085 325.967 260.085C331.293 260.085 335.851 261.979 339.639 265.767C343.426 269.555 345.32 274.112 345.32 279.439C345.32 284.825 343.426 289.441 339.639 293.288C335.851 297.135 331.293 299.059 325.967 299.059Z" fill="#3D3D3D"/>
</svg>
